<svg id="screenshot" viewBox="1485.5862567875529 431.70671850961537 57.8090370192308 143.70749505275774" width="57.8090370192308" height="143.70749505275774" version="1.1" xmlns="http://www.w3.org/2000/svg" xmlns:xlink="http://www.w3.org/1999/xlink" style="-webkit-print-color-adjust: exact;"><g id="shape-803986a0-00f3-11ed-8534-cfed9ed57d98"><g id="shape-b4d9b380-ff77-11ec-8a7a-ef2609ea8c68" width="752pt" height="752pt" version="1.1"><g id="shape-b4d9b381-ff77-11ec-8a7a-ef2609ea8c68"><g id="shape-b4d9b382-ff77-11ec-8a7a-ef2609ea8c68"><defs><linearGradient id="fill-color-gradient_83af2560-00f3-11ed-a497-514535e94499" x1="0.5" y1="0" x2="0.5" y2="1" gradientTransform="matrix(1,0,0,1,0,0)"><stop offset="0" stop-color="#d33860" stop-opacity="1"/><stop offset="1" stop-color="#FB5E89" stop-opacity="1"/></linearGradient></defs><path d="M1500.2793096721684,503.0008653846154L1501.915992364476,508.63956730769235C1504.334742364476,508.42641346153846,1506.8965212106295,508.0526923076923,1509.5294539029373,507.51932692307696C1509.8853433260142,507.4479615384616,1510.24120871063,507.3418557692308,1510.5970981337068,507.2704807692308C1506.8963769798606,506.0957932692308,1503.4456558260144,504.6721634615385,1500.2793096721684,503.0008653846154ZZ" style="fill: url(&quot;#fill-color-gradient_83af2560-00f3-11ed-a497-514535e94499&quot;);"/></g><g id="shape-b4d9b383-ff77-11ec-8a7a-ef2609ea8c68"><defs><linearGradient id="fill-color-gradient_83afc1a0-00f3-11ed-a497-514535e94499" x1="0.5" y1="0" x2="0.5" y2="1" gradientTransform="matrix(1,0,0,1,0,0)"><stop offset="0" stop-color="#d33860" stop-opacity="1"/><stop offset="1" stop-color="#FB5E89" stop-opacity="1"/></linearGradient></defs><path d="M1506.0052712106299,522.6210576923077C1507.8908000567835,522.2473317307692,1509.794213518322,521.7496634615385,1511.6975789029375,521.1984615384615C1509.314381787553,520.2716586538462,1506.9480596721683,519.205889423077,1504.6531077490913,518.014326923077Z" style="fill: url(&quot;#fill-color-gradient_83afc1a0-00f3-11ed-a497-514535e94499&quot;);"/></g><g id="shape-b4d9b384-ff77-11ec-8a7a-ef2609ea8c68"><defs><linearGradient id="fill-color-gradient_83b00fc0-00f3-11ed-a497-514535e94499" x1="0.5" y1="0" x2="0.5" y2="1" gradientTransform="matrix(1,0,0,1,0,0)"><stop offset="0" stop-color="#d33860" stop-opacity="1"/><stop offset="1" stop-color="#FB5E89" stop-opacity="1"/></linearGradient></defs><path d="M1509.954790441399,530.30375C1511.3069539029375,531.2821875,1512.8187327490914,531.8155528846154,1514.223540441399,531.8155528846154C1517.1230596721684,531.8155528846154,1520.3598385183222,529.5027884615384,1521.284838518322,526.7458413461538L1522.0501269798606,524.2198798076923C1519.5955596721683,523.7400480769231,1517.051809672168,523.0649038461538,1514.4902712106295,522.2104086538461C1511.8224827490913,523.099639423077,1509.1361846721684,523.8114182692308,1506.503011595245,524.3109615384615L1507.2147664029376,526.7655288461539C1507.6598625567835,528.0810817307693,1508.6739731337066,529.3965384615385,1509.954790441399,530.30375ZZ" style="fill: url(&quot;#fill-color-gradient_83b00fc0-00f3-11ed-a497-514535e94499&quot;);"/></g><g id="shape-b4d9b385-ff77-11ec-8a7a-ef2609ea8c68"><defs><linearGradient id="fill-color-gradient_83b05de0-00f3-11ed-a497-514535e94499" x1="0.5" y1="0" x2="0.5" y2="1" gradientTransform="matrix(1,0,0,1,0,0)"><stop offset="0" stop-color="#d33860" stop-opacity="1"/><stop offset="1" stop-color="#FB5E89" stop-opacity="1"/></linearGradient></defs><path d="M1523.8490212106299,518.2628846153847C1521.6789971721682,519.3483653846154,1519.4910885183222,520.343701923077,1517.2872423644758,521.1982211538461C1519.0657039029375,521.7315865384616,1520.825463518322,522.1944951923077,1522.5521462106299,522.5325480769231Z" style="fill: url(&quot;#fill-color-gradient_83b05de0-00f3-11ed-a497-514535e94499&quot;);"/></g><g id="shape-b4d9b386-ff77-11ec-8a7a-ef2609ea8c68"><defs><linearGradient id="fill-color-gradient_83b084f0-00f3-11ed-a497-514535e94499" x1="0.5" y1="0" x2="0.5" y2="1" gradientTransform="matrix(1,0,0,1,0,0)"><stop offset="0" stop-color="#d33860" stop-opacity="1"/><stop offset="1" stop-color="#FB5E89" stop-opacity="1"/></linearGradient></defs><path d="M1526.2312327490913,510.39990384615385C1523.5456558260144,510.1689086538462,1520.8591173644759,509.79519230769233,1518.1915692875527,509.26182692307697C1516.7858721721682,508.9773076923077,1515.3990212106296,508.63737980769235,1514.0468577490915,508.28151442307694C1512.6590212106298,508.6571153846154,1511.2543096721683,508.9773076923077,1509.8843577490911,509.26182692307697C1507.2870019798606,509.7773317307693,1504.7968577490915,510.1313461538462,1502.413684672168,510.3454326923077L1503.9611606337066,515.6461538461539L1503.9790017394757,515.6461538461539L1504.2456844317835,515.7888822115385C1507.5716459702453,517.5852043269231,1511.0045786625528,519.09609375,1514.4911171240915,520.3251802884615C1517.924049816399,519.13359375,1521.3036171240915,517.6396033653847,1524.559145970245,515.8958533653846Z" style="fill: url(&quot;#fill-color-gradient_83b084f0-00f3-11ed-a497-514535e94499&quot;);"/></g><g id="shape-b4d9b387-ff77-11ec-8a7a-ef2609ea8c68"><defs><linearGradient id="fill-color-gradient_83b0d310-00f3-11ed-a497-514535e94499" x1="0.5" y1="0" x2="0.5" y2="1" gradientTransform="matrix(1,0,0,1,0,0)"><stop offset="0" stop-color="#d33860" stop-opacity="1"/><stop offset="1" stop-color="#FB5E89" stop-opacity="1"/></linearGradient></defs><path d="M1528.596617364476,502.5729807692308C1525.199261595245,504.4228125,1521.481713518322,506.00783653846156,1517.4985404413987,507.27081730769237C1517.8525548644757,507.3421826923077,1518.1924587106296,507.4482884615385,1518.548348133707,507.51966346153847C1521.2675789029377,508.0727403846154,1524.027434672168,508.4624278846154,1526.7466654413988,508.6934134615385Z" style="fill: url(&quot;#fill-color-gradient_83b0d310-00f3-11ed-a497-514535e94499&quot;);"/></g><g id="shape-b4d9b388-ff77-11ec-8a7a-ef2609ea8c68"><defs><linearGradient id="fill-color-gradient_83b12130-00f3-11ed-a497-514535e94499" x1="0.5" y1="0" x2="0.5" y2="1" gradientTransform="matrix(1,0,0,1,0,0)"><stop offset="0" stop-color="#d33860" stop-opacity="1"/><stop offset="1" stop-color="#FB5E89" stop-opacity="1"/></linearGradient></defs><path d="M1496.7937327490913,491.10182692307694L1499.5862808260144,500.6542307692308C1503.8728192875528,503.05526442307695,1508.7293096721683,505.0102403846154,1514.047819287553,506.4525480769231C1519.7043096721682,504.9229086538462,1524.845415441399,502.8241826923077,1529.32714621063,500.17346153846154L1532.0841173644758,491.10182692307694L1510.6504635183219,491.10182692307694L1510.6504635183219,494.781875C1510.6504635183219,497.21865384615387,1508.6578914029374,499.21120192307694,1506.2211365952453,499.21120192307694C1505.0473865952454,499.21120192307694,1503.92620871063,498.74826923076927,1503.10839621063,497.91444711538463C1502.2726750567836,497.09658653846157,1501.8097664029374,495.9735336538462,1501.8097664029374,494.7819951923077L1501.8097664029374,491.10194711538463Z" style="fill: url(&quot;#fill-color-gradient_83b12130-00f3-11ed-a497-514535e94499&quot;);"/></g><g id="shape-b4e8f5c0-ff77-11ec-8a7a-ef2609ea8c68"><defs><linearGradient id="fill-color-gradient_83b14840-00f3-11ed-a497-514535e94499" x1="0.5" y1="0" x2="0.5" y2="1" gradientTransform="matrix(1,0,0,1,0,0)"><stop offset="0" stop-color="#d33860" stop-opacity="1"/><stop offset="1" stop-color="#FB5E89" stop-opacity="1"/></linearGradient></defs><path d="M1489.8009442875527,475.3398076923077C1489.9436726529375,475.304125,1490.0854635183223,475.28628365384617,1490.2281798644758,475.26844230769234C1490.3530668837066,475.2327596153846,1490.4591750567838,475.2149182692308,1490.5840692875527,475.19707692307696C1490.9934683260144,475.1257115384616,1491.3840933260144,475.09003125000004,1491.811352941399,475.09003125000004L1515.735151018322,475.09097043269236C1515.930463518322,474.768903125,1516.1088769798607,474.4505617788462,1516.286352941399,474.13036947115387C1516.4459827490914,473.86368677884616,1516.624381787553,473.57729254807697,1516.7492856337067,473.2927733173077C1516.9624394798607,472.8852492788462,1517.1051750567835,472.441090625,1517.2647904413989,471.9960185096154C1517.373713518322,471.72933581730774,1517.4976630375527,471.46265312500003,1517.5868577490915,471.17815793269233C1517.7295861144758,470.6804896634616,1517.8357039029374,470.1800088942308,1517.923011595245,469.66448004807694C1517.9765356337066,469.4334848557693,1518.0478986144758,469.18464831730773,1518.0826414029375,468.95460024038465C1518.1915668837069,468.18931177884616,1518.2619899606298,467.4249608173077,1518.2619899606298,466.6418358173077C1518.2619899606298,465.09435985576926,1518.0488361144758,463.618278125,1517.603744768322,462.23029735576927C1516.927663037553,459.8292637019231,1515.6290332298604,457.60577812500003,1513.8506197683223,455.7915954326923C1513.4233841913988,455.3464992788462,1512.9613889990915,454.9399127403846,1512.4984563067837,454.5661867788462C1512.3388264990913,454.4412997596154,1512.178263999091,454.315465625,1512.0186245760142,454.19246081730773C1511.698432268322,453.94173966346153,1511.360379383707,453.7107540865385,1511.022350537553,453.49666754807697C1510.827038037553,453.3736579326923,1510.630788037553,453.2478213942308,1510.435475537553,453.140778125C1510.097446691399,452.94734302884615,1509.7415572683221,452.7670521634615,1509.3856678452453,452.5895762019231C1509.1903553452453,452.50037187500004,1509.0119418837066,452.3942637019231,1508.8166293837066,452.3228935096154C1508.3011245760144,452.0918983173077,1507.766821691399,451.91536947115384,1507.233480345245,451.7378935096154C1507.0203264990914,451.68436947115384,1506.8240813067837,451.64680937500003,1506.610932268322,451.5951651442308C1506.219369768322,451.4862420673077,1505.827807268322,451.3998526442308,1505.437182268322,451.3284824519231C1505.2240284221684,451.2927997596154,1505.009946691399,451.2571170673077,1504.7789370760142,451.239278125C1504.3338409221683,451.1679151442308,1503.8897063067834,451.1303550480769,1503.4267736144757,451.11439110576924C1503.2840452490914,451.09655000000004,1503.1244178452453,451.09655000000004,1502.9816774606297,451.09655000000004C1502.4661726529375,451.0787091346154,1501.931869768322,451.11439110576924,1501.4163649606298,451.1500740384615C1501.2567351529374,451.1679151442308,1501.114009191399,451.1679151442308,1500.9712688067834,451.18575673076924C1500.277350537553,451.2571221153846,1499.6012688067835,451.38106923076924,1498.9082880375527,451.54164615384616C1491.9888168837065,453.28349711538465,1487.133288037553,459.4930884615385,1487.133288037553,466.64356923076923C1487.133288037553,469.7724153846154,1488.058215922168,472.77818461538465,1489.8009442875527,475.3398076923077ZZ" style="fill: url(&quot;#fill-color-gradient_83b14840-00f3-11ed-a497-514535e94499&quot;);"/></g><g id="shape-b4e8f5c1-ff77-11ec-8a7a-ef2609ea8c68"><defs><linearGradient id="fill-color-gradient_83b1bd70-00f3-11ed-a497-514535e94499" x1="0.5" y1="0" x2="0.5" y2="1" gradientTransform="matrix(1,0,0,1,0,0)"><stop offset="0" stop-color="#d33860" stop-opacity="1"/><stop offset="1" stop-color="#FB5E89" stop-opacity="1"/></linearGradient></defs><path d="M1525.5365212106299,482.4383653846154C1526.0341894798603,482.9350961538462,1526.7102712106298,483.2036538461539,1527.4220500567835,483.2036538461539C1528.880319287553,483.2036538461539,1530.0549827490913,482.01206730769235,1530.0549827490913,480.5529326923077L1530.0549827490913,475.9817788461539C1530.0549827490913,475.4841105769231,1530.4465452490913,475.0925480769231,1530.9442135183222,475.0925480769231L1537.1696942875528,475.0925480769231C1537.596929864476,475.0925480769231,1537.987554864476,475.1282307692308,1538.3969779413987,475.19959375C1538.5199875567837,475.2174348557693,1538.6279731337067,475.2371538461539,1538.7509923644757,475.2709591346154C1538.8937207298604,475.28880024038466,1539.0355115952452,475.30851923076926,1539.1782279413987,475.3423245192308C1540.9210164029373,472.7807860576923,1541.8460164029375,469.7750168269231,1541.8460164029375,466.6442475961539C1541.8460164029375,459.49184375000004,1536.9914490952451,453.28415144230775,1530.0529875567836,451.54232451923076C1529.981622172168,451.52448341346155,1529.9102591913988,451.50476442307695,1529.8398337106296,451.50476442307695C1529.2351221721683,451.3620360576923,1528.6144250567836,451.2559182692308,1528.007838518322,451.18457211538464C1527.758992364476,451.1488894230769,1527.5280067875528,451.16673100961543,1527.2979587106297,451.1488894230769C1526.8528625567837,451.1113293269231,1526.4265644798606,451.07752403846155,1525.9993289029376,451.09536538461543C1525.6969731337067,451.09536538461543,1525.4124539029376,451.1310480769231,1525.1298096721684,451.1488894230769C1524.7542087106299,451.1667305288462,1524.400194287553,451.18457211538464,1524.0274298644758,451.23809375C1523.725074095245,451.29161778846156,1523.4208433260142,451.3611033653846,1523.1184875567837,451.4155649038462C1522.7823337106297,451.48693028846156,1522.4424058260142,451.5582932692308,1522.122213518322,451.64656009615385C1521.8198577490912,451.7179254807693,1521.5175019798608,451.84187259615385,1521.2329827490912,451.9310793269231C1520.912790441399,452.0400024038462,1520.5925740952453,452.14423317307694,1520.2902183260144,452.269108173077C1520.0056990952453,452.3921177884616,1519.7230548644757,452.53391586538464,1519.4544971721684,452.6766322115385C1519.1521414029376,452.8193605769231,1518.8497856337067,452.9611514423077,1518.5474298644758,453.1395649038462C1518.280747172168,453.28229326923076,1518.0319250567836,453.4616322115385,1517.7812039029372,453.6212716346154C1517.498559672168,453.8165841346154,1517.1943289029373,454.0128341346154,1516.92952121063,454.22598317307694C1516.6806750567835,454.40533173076926,1516.4665885183222,454.5997091346154,1516.235602941399,454.7950216346154C1516.0759731337066,454.93775000000005,1515.9154106337069,455.0795408653846,1515.7557712106295,455.2222572115385C1515.8984995760143,455.39972836538465,1516.0224539029373,455.5762716346154,1516.1651702490913,455.7556225961539C1516.3426414029373,455.9687764423077,1516.5210596721681,456.18285817307697,1516.6825500567834,456.4138677884616C1516.9135452490914,456.7340600961539,1517.1276462106298,457.07211298076925,1517.3389202490912,457.4101418269231C1517.481648614476,457.62329567307694,1517.641276018322,457.85523798076923,1517.7661558260143,458.08622355769234C1517.9793096721683,458.4599495192308,1518.175554864476,458.8524495192308,1518.3530308260142,459.22617548076926C1518.4422351529374,459.43745192307694,1518.5661846721682,459.65153605769234,1518.655386595245,459.8646850961539C1518.9061077490915,460.4693966346154,1519.1370933260146,461.09196875000004,1519.3136317875528,461.7145168269231C1519.7953385183218,463.24415625,1520.0432471721683,464.9164399038462,1520.0432471721683,466.64336298076927C1520.0432471721683,467.46122355769234,1519.971884191399,468.280045673077,1519.863898614476,469.09793028846155C1519.828215922168,469.3467764423077,1519.7568529413988,469.61343509615386,1519.7042688067836,469.86321875000004C1519.6150644798604,470.3965841346154,1519.4911149606296,470.9486995192308,1519.330542845245,471.46422836538466C1519.2591774606299,471.7665841346154,1519.153071691399,472.0511033653846,1519.0460236144759,472.3337475961539C1518.8863938067834,472.8154543269231,1518.692009191399,473.29434855769233,1518.494821691399,473.75821875C1518.3520933260143,474.04086298076925,1518.2281389990912,474.3253822115385,1518.0854226529373,474.5939399038462C1517.9962183260145,474.7535697115385,1517.9257928452453,474.93009375,1517.8365764990913,475.09160817307696L1523.884653422168,475.09160817307696C1524.3813841913989,475.09160817307696,1524.7738841913988,475.4831706730769,1524.7738841913988,475.98083894230774L1524.7738841913988,480.55103125000005C1524.7720063067836,481.26468509615387,1525.0386918837066,481.9407427884616,1525.5365212106299,482.4383653846154ZZ" style="fill: url(&quot;#fill-color-gradient_83b1bd70-00f3-11ed-a497-514535e94499&quot;);"/></g><g id="shape-b4e8f5c2-ff77-11ec-8a7a-ef2609ea8c68"><defs><linearGradient id="fill-color-gradient_83b20b90-00f3-11ed-a497-514535e94499" x1="0.5" y1="0" x2="0.5" y2="1" gradientTransform="matrix(1,0,0,1,0,0)"><stop offset="0" stop-color="#d33860" stop-opacity="1"/><stop offset="1" stop-color="#FB5E89" stop-opacity="1"/></linearGradient></defs><path d="M1500.6182519798604,449.44076923076926C1500.7252976529376,449.42105000000004,1500.8314058260144,449.4032091346154,1500.938444287553,449.4032091346154C1501.5431558260143,449.33184375,1502.1300308260143,449.29616346153847,1502.7169058260142,449.29616346153847C1502.7882712106298,449.29616346153847,1502.8765356337067,449.31400456730773,1502.9479010183222,449.31400456730773C1503.1967471721682,449.31400456730773,1503.4455692875526,449.3318454326923,1503.7131894798604,449.3496872596154C1504.086915441399,449.36940625,1504.478477941399,449.40321129807694,1504.8512664029377,449.4407713942308C1505.1714587106298,449.47645408653847,1505.509511595245,449.52997572115385,1505.8297039029376,449.58162235576924C1506.1142231337067,449.6351463942308,1506.4165789029375,449.706509375,1506.7010981337066,449.77693485576924C1507.3058096721684,449.9196632211539,1507.8926846721683,450.079290625,1508.4795596721683,450.29243966346155C1508.7284058260143,450.38164399038465,1508.9772279413992,450.4699108173077,1509.2270115952451,450.55912235576926C1509.565040441399,450.70185072115385,1509.867420249091,450.84364158653847,1510.1876125567837,451.0042185096154C1510.4899683260142,451.146946875,1510.7744875567837,451.28873774038465,1511.0590067875528,451.44931466346156C1511.3078529413988,451.59204302884615,1511.574511595245,451.73383389423077,1511.8242952490914,451.8944108173077C1512.3576606337065,452.214603125,1512.8562664029373,452.5704925480769,1513.3360981337069,452.9442185096154C1513.4788264990912,453.0512641826923,1513.620617364476,453.1752137019231,1513.76333371063,453.3001079326923C1513.9943289029375,453.49354302884615,1514.2610019798603,453.70763197115383,1514.492949095245,453.9226560096154C1514.8131414029376,453.62030024038467,1515.1333577490914,453.35361754807695,1515.4713865952453,453.08693485576924C1515.507069287553,453.0493747596154,1515.5249106337064,453.0334108173077,1515.560590922168,452.99773052884615C1516.058259191399,452.60429302884614,1516.5747255375527,452.26811514423076,1517.1080668837067,451.92914879807694C1517.2676966913991,451.822103125,1517.4104226529375,451.7357137019231,1517.5719370760144,451.64462956730773C1518.0855668837066,451.3422737980769,1518.6020332298604,451.07746610576925,1519.1372495760143,450.8267689903846C1519.3306846721684,450.73756466346157,1519.510975537553,450.6671391826923,1519.704413037553,450.59577379807695C1520.131648614476,450.4183026442308,1520.5579707298607,450.25961995192307,1521.003042845245,450.1159420673077C1521.180513999091,450.0624180288462,1521.3767688067837,449.99105504807693,1521.554244768322,449.9365935096154C1522.1073216913992,449.7938651442308,1522.6744851529375,449.6717858173077,1523.2444370760145,449.56286754807695C1523.457590922168,449.52718485576924,1523.6716726529376,449.4915021634616,1523.9026822683222,449.47366322115386C1524.009727941399,449.4558223557692,1524.1336774606298,449.4201391826923,1524.258571691399,449.4022978365385C1521.3768409221684,447.60597572115387,1519.473475537553,444.40398052884615,1519.473475537553,440.7578266826923C1519.473475537553,440.10145649038463,1519.544840922168,439.4234997596154,1519.6866293837065,438.74741802884614C1519.1354274606297,438.8572810096154,1518.5833120760144,438.91080504807695,1518.0499466913989,438.91080504807695C1513.5314370760143,438.91080504807695,1509.5828793837068,435.93989158653847,1508.2843216913989,431.70671850961537C1502.645619768322,434.1612858173077,1498.928071691399,439.7821992788462,1498.928071691399,445.9898915865385C1498.928071691399,447.2350117788462,1499.0708000567838,448.44445889423076,1499.3553072683221,449.61825697115387C1499.7816053452452,449.5478314903846,1500.191028422168,449.49430985576925,1500.6182519798604,449.44076923076926ZZ" style="fill: url(&quot;#fill-color-gradient_83b20b90-00f3-11ed-a497-514535e94499&quot;);"/></g><g id="shape-b4e8f5c3-ff77-11ec-8a7a-ef2609ea8c68"><defs><linearGradient id="fill-color-gradient_83b280c0-00f3-11ed-a497-514535e94499" x1="0.5" y1="0" x2="0.5" y2="1" gradientTransform="matrix(1,0,0,1,0,0)"><stop offset="0" stop-color="#d33860" stop-opacity="1"/><stop offset="1" stop-color="#FB5E89" stop-opacity="1"/></linearGradient></defs><path d="M1539.2504635183222,477.22682692307694C1538.5922183260145,476.9958317307693,1537.8983000567837,476.8728125,1537.1696462106297,476.8728125L1531.8333481337067,476.8728125L1531.8333481337067,480.55286057692314C1531.8333481337067,482.98963942307694,1529.8586365952451,484.9821875,1527.4218096721684,484.9821875C1526.2302231337067,484.9821875,1525.128756787553,484.51925480769233,1524.2912808260144,483.6854326923077C1523.4555596721684,482.8478365384616,1522.9945260183222,481.74451923076924,1522.9945260183222,480.5529807692308L1522.9945260183222,476.87125000000003L1491.8118337106298,476.87125000000003C1491.0822183260143,476.87125000000003,1490.3892375567834,476.99425961538464,1489.748852941399,477.22526442307696C1488.8417856337069,477.54733173076926,1488.0586606337065,478.0252884615385,1487.4004154413992,478.68353365384615C1486.2266654413988,479.87512019230775,1485.5862567875529,481.4405048076923,1485.5862567875529,483.09507211538465C1485.5862567875529,486.52800480769235,1488.378804864476,489.3205528846154,1491.8117375567836,489.3205528846154L1502.697554864476,489.3205528846154C1503.1952231337068,489.3205528846154,1503.5867856337068,489.7121153846154,1503.5867856337068,490.2097836538462L1503.5867856337068,494.7799759615385C1503.5867856337068,495.4917307692308,1503.8534683260145,496.1678125,1504.3520740952454,496.6673798076923C1504.8497423644758,497.1641105769231,1505.5079875567835,497.4326682692308,1506.2197423644761,497.4326682692308C1507.6780115952452,497.4326682692308,1508.8704635183221,496.2410817307693,1508.8704635183221,494.78194711538464L1508.8695245760146,490.2117548076924C1508.8695245760146,489.7140865384616,1509.2610870760145,489.32252403846155,1509.7587553452454,489.32252403846155L1537.169813037553,489.32252403846155C1540.6027457298605,489.32252403846155,1543.3952938067837,486.5299759615385,1543.3952938067837,483.0970432692308C1543.3952938067837,480.44728365384617,1541.722938037553,478.0809375,1539.2504635183222,477.22682692307694ZZ" style="fill: url(&quot;#fill-color-gradient_83b280c0-00f3-11ed-a497-514535e94499&quot;);"/></g></g></g><g id="shape-6ed09fc4-ff77-11ec-8a7a-ef2609ea8c68"><defs><linearGradient id="fill-color-gradient_83b2a7d0-00f3-11ed-a497-514535e94499" x1="0.5" y1="0" x2="0.5" y2="1"><stop offset="0" stop-color="#d33860" stop-opacity="1"/><stop offset="1" stop-color="#FB5E89" stop-opacity="1"/></linearGradient></defs><ellipse cx="1514.4951204514055" cy="558" rx="16" ry="16" transform="matrix(1,0,0,1,0,0)" style="fill: url(&quot;#fill-color-gradient_83b2a7d0-00f3-11ed-a497-514535e94499&quot;);"/></g></g></svg>