<svg id="screenshot" viewBox="45 24 141.38367002296263 39.03304580173351" width="141.38367002296263" height="39.03304580173351" version="1.1" xmlns="http://www.w3.org/2000/svg" xmlns:xlink="http://www.w3.org/1999/xlink" style="-webkit-print-color-adjust: exact;"><g id="shape-b2911688-ff8c-11ec-9f14-3bc3f8e9ac9d"><g id="shape-b2911685-ff8c-11ec-9f14-3bc3f8e9ac9d"><g><path d="M537 1030 c-69 -18 -123 -64 -159 -137 -30 -61 -33 -77 -37 -175 -5
-175 41 -287 142 -341 65 -34 183 -31 260 6 53 26 87 64 87 97 0 19 -40 50
-65 50 -19 0 -26 -7 -34 -35 -23 -85 -86 -125 -163 -105 -66 18 -101 90 -113
240 -7 85 8 231 30 283 23 55 68 87 124 87 39 0 52 -5 73 -27 15 -16 30 -44
35 -63 11 -42 30 -48 66 -20 32 25 34 48 7 82 -38 49 -169 78 -253 58z M1857
1030 c-69 -18 -123 -64 -159 -137 -30 -61 -33 -77 -37 -175 -5 -175 41 -287
142 -341 65 -34 183 -31 260 6 53 26 87 64 87 97 0 19 -40 50 -65 50 -19 0
-26 -7 -34 -35 -23 -85 -86 -125 -163 -105 -66 18 -101 90 -113 240 -7 85 8
231 30 283 23 55 68 87 124 87 39 0 52 -5 73 -27 15 -16 30 -44 35 -63 11 -42
30 -48 66 -20 32 25 34 48 7 82 -38 49 -169 78 -253 58z M2327 1030 c-27 -5
-50 -10 -50 -12 -1 -2 -1 -146 1 -321 l4 -318 24 -16 c33 -21 90 -7 87 23 -2
10 -6 76 -9 146 l-7 128 42 0 c71 0 95 -20 130 -107 56 -136 63 -151 85 -172
12 -12 36 -24 53 -27 26 -5 37 -1 57 19 31 31 34 57 6 57 -29 0 -54 32 -85
110 -28 69 -75 130 -101 130 -24 0 -15 17 11 24 38 10 102 72 116 113 14 43 7
114 -15 148 -43 65 -202 99 -349 75z m200 -49 c34 -18 53 -63 53 -128 0 -100
-49 -154 -142 -157 l-53 -1 -3 152 -3 152 28 3 c36 4 92 -5 120 -21z M3576
1031 c-16 -3 -33 -13 -38 -21 -22 -38 -198 -575 -198 -605 0 -25 6 -38 21 -46
24 -12 93 -3 84 11 -3 5 4 50 17 100 l22 91 120 -3 119 -3 23 -85 c30 -110 56
-134 119 -110 21 8 24 13 17 27 -6 10 -51 153 -101 318 -65 214 -98 305 -112
318 -22 17 -42 19 -93 8z m79 -234 c26 -93 44 -171 42 -173 -2 -3 -47 -3 -99
-2 l-95 3 44 165 c49 183 54 199 59 185 2 -5 24 -86 49 -178z M88 1023 c-2 -5
-2 -151 0 -326 l4 -318 24 -16 c33 -21 91 -6 86 23 -2 10 -6 154 -9 319 -3
181 -9 305 -15 313 -11 13 -85 17 -90 5z M3990 1023 c0 -5 0 -152 0 -328 1
-343 2 -355 50 -340 15 5 19 11 14 23 -9 21 -18 539 -9 531 3 -4 39 -87 79
-185 120 -294 114 -284 161 -284 22 0 45 4 51 8 5 4 45 99 89 212 43 113 83
214 89 225 8 15 12 -45 16 -245 l5 -264 26 -15 c22 -12 31 -12 57 -2 28 12 29
15 21 44 -5 18 -9 163 -9 324 l0 293 -23 5 c-13 4 -43 5 -68 3 -42 -3 -44 -5
-60 -48 -86 -239 -162 -440 -168 -440 -3 0 -46 100 -95 223 -49 122 -95 232
-103 245 -11 18 -22 22 -68 22 -30 0 -55 -3 -55 -7z M959 1010 c-14 -8 -15
-17 -8 -47 5 -21 9 -155 9 -299 0 -208 3 -264 14 -280 13 -17 30 -19 179 -22
142 -3 166 -1 180 13 19 18 21 42 8 64 -8 12 -20 12 -88 -2 -43 -9 -103 -18
-133 -19 l-55 -3 -3 133 -3 132 111 0 110 0 0 25 c0 24 -1 24 -107 27 l-108 3
-3 122 -3 121 63 -5 c35 -3 91 -14 125 -23 74 -20 90 -9 84 58 -1 15 -346 17
-372 2z M2879 1008 c-12 -11 -13 -59 -9 -310 5 -268 7 -299 23 -315 15 -15 40
-18 178 -21 171 -4 189 1 189 43 0 44 -9 54 -38 44 -31 -10 -195 -39 -223 -39
-18 0 -19 10 -19 135 l0 134 108 3 c102 3 107 4 110 26 3 22 2 22 -107 22
l-111 0 0 124 0 125 58 -6 c31 -3 88 -13 125 -23 l69 -17 9 24 c5 13 9 33 9
44 0 18 -9 19 -178 19 -128 0 -182 -4 -193 -12z" transform="translate(45, 33.033045801733486) scale(0.25, 0.25) translate(0.000000,120.000000) scale(0.100000,-0.100000)" fill="#faf0c0" stroke="none"/></g></g><g id="shape-b291168a-ff8c-11ec-9f14-3bc3f8e9ac9d"><g id="shape-b291168c-ff8c-11ec-9f14-3bc3f8e9ac9d" width="752pt" height="752pt" version="1.1"><g id="shape-b2911683-ff8c-11ec-9f14-3bc3f8e9ac9d"><g id="shape-b2911682-ff8c-11ec-9f14-3bc3f8e9ac9d"><path d="M176.3617677798752,40.06628661971831L176.74219917381197,41.33698001083425C177.30441470795768,41.288945341278435,177.89987594303875,41.2047264897075,178.51187621589725,41.08453147345614C178.59459934234383,41.06844913326111,178.67731688127787,41.04453797399785,178.76004000772355,41.0284534669556C177.89984241796265,40.76373515709642,177.0977549609297,40.44291717226437,176.3617677798752,40.06628661971831ZZ" style="fill: rgb(250, 240, 192); fill-opacity: 1;"/></g><g id="shape-b291168f-ff8c-11ec-9f14-3bc3f8e9ac9d"><path d="M177.6927133198633,44.487738407367274C178.13098664591553,44.40351847237271,178.57341708146214,44.291367876489716,179.01583634198323,44.16715335861322C178.46188473921302,43.95829637053089,177.9118555704017,43.71812302275191,177.37841572698198,43.44960189599135Z" style="fill: rgb(250, 240, 192); fill-opacity: 1;"/></g><g id="shape-b2911681-ff8c-11ec-9f14-3bc3f8e9ac9d"><path d="M178.6107416667146,46.21904934994585C178.925039259595,46.43954230769231,179.27643793721836,46.559737323943665,179.60297218304913,46.559737323943665C180.27693797244183,46.559737323943665,181.02929656588958,46.03855097508125,181.24430405698422,45.41726711809318L181.42218811328576,44.84803634886242C180.85164718512442,44.739905254604565,180.26037658461428,44.587760075839654,179.6649712246599,44.39519777898158C179.04486905829617,44.59558781148431,178.4204645071054,44.75598867822319,177.80840835912022,44.86856180931744L177.97384902449994,45.4217037378115C178.0773074108065,45.71816635969665,178.31302781171144,46.01460731310944,178.6107416667146,46.21904934994585ZZ" style="fill: rgb(250, 240, 192); fill-opacity: 1;"/></g><g id="shape-b2911690-ff8c-11ec-9f14-3bc3f8e9ac9d"><path d="M181.8403240433422,43.50561489707478C181.3359225037484,43.750230281690136,180.82736385465932,43.97453147345615,180.3151006846083,44.167099187432285C180.7284872288169,44.28729420368364,181.13752668809593,44.39161164680391,181.53887772981443,44.46779257854824Z" style="fill: rgb(250, 240, 192); fill-opacity: 1;"/></g><g id="shape-b2911680-ff8c-11ec-9f14-3bc3f8e9ac9d"><path d="M176.44055170982438,27.996405796316367C176.46543346290628,27.991962026002184,176.49009730299076,27.987941549295783,176.44055170982438,27.996405796316367ZC176.65553685086797,27.971859209100785,176.7919503874473,27.963818580715056,176.9283639240266,27.963818580715056C176.94495213191567,27.963818580715056,176.96546836127663,27.967839111592653,176.98205656916525,27.967839111592653C177.03989850128164,27.967839111592653,177.09773484588368,27.971859588299047,177.15994062546724,27.975880281690152C177.24680968638313,27.98032399783316,177.33782468176832,27.987942036836415,177.42447582968725,27.996406283857013C177.49890149968132,28.004447453954484,177.5774786916577,28.016508667388962,177.6519043616522,28.02814734561214C177.71803816270676,28.040209100758403,177.78831789823198,28.05629089924161,177.85445169928698,28.07216143011918C177.9950111703356,28.104325568797414,178.13142470691582,28.140297941495135,178.26783824349468,28.188331527627312C178.32568017561061,28.208433911159275,178.38351652021356,28.228325027085617,178.4415763653269,28.248429035753006C178.52014796979074,28.280593174431218,178.5904332928285,28.312546045503794,178.66485896282256,28.34873239436621C178.73513869834733,28.380896533044435,178.80127249940233,28.41284940411701,178.86740630045733,28.449035752979427C178.9252482325728,28.481199891657653,178.98723051164507,28.51315276273023,179.04529035675841,28.54933911159263C179.16926608992935,28.621495124593736,179.28516227964565,28.701695557963163,179.3966946218943,28.78591549295774C179.42987047892075,28.81003846153847,179.46282842294931,28.83797074756231,179.49600148621948,28.866115926327197C179.54969413135768,28.909706933911167,179.61167976293837,28.957952329360765,179.66559367358195,29.006408450704257C179.74001934357648,28.93827193932829,179.81445060108308,28.87817443120261,179.89302220554646,28.818076923076944C179.90131630949145,28.809612676056346,179.90546336146372,28.80601516793068,179.91375690665654,28.797974539544953C180.02943518337497,28.709312567713994,180.14948289507447,28.633554171180947,180.2734530407315,28.557167388949075C180.3105574779811,28.53304442036837,180.34373277625627,28.51357638136514,180.38127527450615,28.493050379198294C180.50066365969906,28.424913867822326,180.6207113713981,28.365238894907932,180.74511734305133,28.308743770314194C180.79007949949937,28.28864138678223,180.83198640396768,28.272770855904653,180.8769491191656,28.256688515709655C180.97625598349077,28.21669501625135,181.07535052233015,28.18093553629471,181.1788033211251,28.148557421451777C181.22005481034694,28.136495666305542,181.26567238204098,28.120413867822315,181.3069249887658,28.108140845070423C181.4354824824013,28.075976706392225,181.56731425851558,28.04846587215603,181.69979418611092,28.02392091007585C181.7493397792773,28.01587973997833,181.79910105043564,28.007838569880853,181.8527970480818,28.00381852654389C181.8776788011637,27.999798049837494,181.90648969322046,27.99175677139762,181.9355201745284,27.98773618634887C181.2656891445804,27.58293120260023,180.8232698840584,26.86135482123511,180.8232698840584,26.039686348862418C180.8232698840584,25.891771939328294,180.83985809194655,25.73899295774649,180.87281547722432,25.586636511375957C180.74469380958408,25.61139436619719,180.6163598164585,25.62345612134346,180.49238408328802,25.62345612134346C179.44209930935267,25.62345612134346,178.52429446301176,24.953954496208027,178.22245702359032,24C176.91179415493025,24.553141928494057,176.0476853062355,25.819826652221032,176.0476853062355,27.218743228602378C176.0476853062355,27.499333694474537,176.08086116326194,27.77188515709642,176.14699217056022,28.03640303358614C176.24608112188798,28.02053250270857,176.34124763925593,28.008471289274127,176.44055170982438,27.996405796316367ZZ" style="fill: rgb(250, 240, 192); fill-opacity: 1;"/></g><g id="shape-b291168e-ff8c-11ec-9f14-3bc3f8e9ac9d"><path d="M185.42024347016832,34.2580526002167C185.26724060819743,34.205997345612154,185.105945877287,34.178274702058516,184.9365771904354,34.178274702058516L183.6962052323256,34.178274702058516L183.6962052323256,35.007581310942584C183.6962052323256,35.55671457204768,183.23720223392502,36.005739490790916,182.6707848901824,36.005739490790916C182.39381188255356,36.005739490790916,182.1377864602705,35.901416630552575,181.94312310314353,35.71351305525462C181.7488676344483,35.524758992416054,181.64170472717979,35.27612410617553,181.64170472717979,35.00760839653307L181.64170472717979,34.17792258938246L174.39358317188226,34.17792258938246C174.22399098451933,34.17792258938246,174.06291416660724,34.205643066088854,173.91406282661865,34.257700487540646C173.70322362004526,34.33027903575301,173.5211936292735,34.43798759479958,173.36819076730262,34.58632453954498C173.09536369414354,34.854851083423625,172.94650676664241,35.207613813651136,172.94650676664241,35.580474052004334C172.94650676664241,36.354092686890596,173.59560812424206,36.98339929577466,174.39356082183076,36.98339929577466L176.92386597625318,36.98339929577466C177.0395442529716,36.98339929577466,177.1305592483577,37.07163873239439,177.1305592483577,37.183789328277385L177.1305592483577,38.213691820151695C177.1305592483577,38.37408726977249,177.1925471149425,38.52644371614301,177.30844330465925,38.63902226435536C177.42412158137768,38.750961592632734,177.57712444334902,38.81148163596967,177.74256510872874,38.81148163596967C178.08152598294282,38.81148163596967,178.35870014103148,38.542955092091006,178.35870014103148,38.21413602383535L178.35848189278204,37.18423353196101C178.35848189278204,37.07208293607803,178.44949688816814,36.98384349945829,178.56517516488702,36.98384349945829L184.9366159677743,36.98384349945829C185.73456866536253,36.98384349945829,186.38367002296263,36.35453689057424,186.38367002296263,35.580918255687976C186.38367002296263,34.98378932827737,185.99494676008726,34.45052822318527,185.42024347016832,34.2580526002167ZZ" style="fill: rgb(250, 240, 192); fill-opacity: 1;"/></g><g id="shape-b2911689-ff8c-11ec-9f14-3bc3f8e9ac9d"><path d="M182.39404655808903,41.73367556879741C181.76980963228198,41.681620314192855,181.1453492059636,41.597402546045515,180.52530291472704,41.47720752979416C180.19856193092437,41.41309052004334,179.8762015571274,41.33648705308778,179.56190396424608,41.25629203683641C179.23931450242526,41.34093450704226,178.91280260664553,41.41309052004334,178.59437025431998,41.47720752979416C177.99063950035088,41.59337762730232,177.41182905330015,41.67315552546049,176.85788303804293,41.721400379198286L177.21757917211835,42.91592908992418L177.22172616821535,42.91592908992418L177.28371403480014,42.9480932286024C178.05680230059625,43.35289821235105,178.85475499818494,43.693380335861335,179.6651678492335,43.970357583965324C180.4631205468222,43.70183104008669,181.24866896607955,43.365157150595905,182.0053858194815,42.97219940411702Z" style="fill: rgb(250, 240, 192); fill-opacity: 1;"/></g><g id="shape-b2911684-ff8c-11ec-9f14-3bc3f8e9ac9d"><path d="M182.94385781390292,39.96986191765984C182.15417463520225,40.38672540628389,181.2900657865075,40.74391392199351,180.36421492178943,41.0285293066089C180.44650222224027,41.0446116468039,180.52550965269984,41.06852280606719,180.60823277914596,41.084607313109444C181.24029222282115,41.2092443661972,181.88179456306443,41.29706126760564,182.51385400673917,41.34911435536296Z" style="fill: rgb(250, 240, 192); fill-opacity: 1;"/></g><g id="shape-b291168b-ff8c-11ec-9f14-3bc3f8e9ac9d"><path d="M182.23256743925776,35.432483802816904C182.3482457159762,35.54442313109428,182.5053945124173,35.60494317443121,182.67084076530955,35.60494317443121C183.00980163952408,35.60494317443121,183.28284103816804,35.33641663055255,183.28284103816804,35.00759756229688L183.28284103816804,33.97747838569881C183.28284103816804,33.86532778981585,183.3738560335537,33.77708835319611,183.48953431027212,33.77708835319611L184.93658836546092,33.77708835319611C185.03589522978564,33.77708835319611,185.12669231217387,33.78512952329361,185.22185882954182,33.801211321776805C185.25045124984945,33.8052318526544,185.27555147468047,33.80967556879742,185.30414612999266,33.817293661971846C185.33732198701864,33.8213141928494,185.37027993104812,33.82575790899244,185.40345299431738,33.83337600216686C185.808547669586,33.2561278981582,186.0235551606811,32.57877145178766,186.0235551606811,31.873245991332617C186.0235551606811,30.261436673889506,184.8951569583287,28.86252009750813,183.28237727460873,28.46999572047671C183.26578906672012,28.465975189599142,183.2492014175823,28.461531473456134,183.2328316814428,28.461531473456134C183.09227221039328,28.429367334777908,182.94799704335765,28.405453466955606,182.80700174631238,28.389375460455042C182.7491598141969,28.38133429035753,182.69546940406372,28.38535492957749,182.6419969069284,28.38133429035753C182.5385385206214,28.372870043336945,182.43944956929408,28.365251950162524,182.34014270496846,28.369272535211287C182.26986296944415,28.369272535211287,182.20372916838915,28.377313705308786,182.13803119332988,28.38133429035753C182.0507263064178,28.38535482123512,181.9684390059674,28.389375460455042,181.88179344556193,28.40143667388952C181.81151371003716,28.413498429035783,181.74079814851711,28.429157150595877,181.67051841299235,28.441430173347797C181.5923826345238,28.457512513542824,181.5133696165517,28.473594312026023,181.43894394655763,28.493485427952336C181.36866421103286,28.509567768147363,181.2983844755081,28.537499512459377,181.2322506744531,28.557602437703167C181.15782500445948,28.58214848320695,181.08339374695151,28.605637107258943,181.0131140114272,28.633777952329368C180.9469802103731,28.66149842903578,180.88128223531294,28.69345292524379,180.81885854273196,28.725614355362964C180.7485788072081,28.757778494041162,180.6782990716829,28.789731365113774,180.60801933615812,28.829937215601333C180.54603146957288,28.86210135427953,180.48819512497084,28.90251576381366,180.42991736685917,28.938490845070447C180.3642193917999,28.9825049295775,180.2935038302794,29.026730281690163,180.23195178968945,29.07476386782234C180.17410985757397,29.115180444203702,180.12434746891267,29.15898380281692,180.07065705877994,29.202997887323953C180.03355262153036,29.235162026002186,179.99623138878542,29.267114897074762,179.95912471653082,29.299276327193937C179.99230057355635,29.339269826652256,180.0211125831156,29.37905422535212,180.05428564638623,29.41947134344531C180.09553713560717,29.467506013001113,180.1370087728319,29.515749783315286,180.1745456835697,29.56780828819069C180.2282383287079,29.639964301191796,180.27800406987626,29.716145232936086,180.32711271954486,29.792320747562307C180.3602885765713,29.84035541711812,180.39739245506917,29.892624106175504,180.42641958386957,29.944677193932833C180.4759651770355,30.028897128927426,180.52158051372498,30.117347833152785,180.5628331204498,30.201567768147356C180.58356782155897,30.24917936078009,180.61237871361573,30.29742367280609,180.6331128559741,30.345457258938268C180.69139061408487,30.48173028169016,180.74508102421896,30.622028223185282,180.786115717945,30.762320747562327C180.8980838861894,31.107028223185253,180.95570790530746,31.483880877573156,180.95570790530746,31.873046641386786C180.95570790530746,32.05735325027086,180.9391202561701,32.241876543878675,180.91402003133862,32.42618856988082C180.9057259273941,32.48226657638138,180.88913827825672,32.54235866738897,180.87691559408904,32.59864794149516C180.8561808929794,32.71884295774649,180.8273700009231,32.84326332611052,180.79004653317315,32.95943884073674C180.773458325285,33.02757535211269,180.7487950439513,33.091692361863494,180.72391273211815,33.15538683640305C180.68680829486857,33.26394046587215,180.6416254316673,33.3718602925244,180.59579106447836,33.476394420368386C180.56261520745193,33.54008889490791,180.53380319789267,33.604205904658755,180.50063013462295,33.66472594799569C180.47989543351287,33.700698862405204,180.46352569737337,33.740478927410635,180.44278820250747,33.77687654387866L181.84860641350951,33.77687654387866C181.96406677723053,33.77687654387866,182.05529968561405,33.86511598049837,182.05529968561405,33.97726657638138L182.05529968561405,35.007169068255706C182.054863189117,35.167992470205846,182.11685172620355,35.32034349945829,182.23256743925776,35.432483802816904ZZ" style="fill: rgb(250, 240, 192); fill-opacity: 1;"/></g><g id="shape-b2911687-ff8c-11ec-9f14-3bc3f8e9ac9d"><path d="M175.5515784293375,37.384813163596974L176.2006797869376,39.53746755146264C177.19704506271682,40.07854555796317,178.32589026609094,40.519103521126766,179.5621274647565,40.84413060671724C180.8769250928608,40.49942313109429,182.07192644734096,40.026470801733495,183.11366232675027,39.42912518959915L183.75449416546235,37.384813163596974L178.77244428605582,37.384813163596974L178.77244428605582,38.214119772481055C178.77244428605582,38.76325303358615,178.30928976567338,39.21227795232937,177.74288918446837,39.21227795232937C177.47006211130974,39.21227795232937,177.20945492856163,39.10795509209103,177.0193621568742,38.92005151679308C176.82510668817895,38.73574490790901,176.7175079549147,38.48266256771399,176.7175079549147,38.214146858071516L176.7175079549147,37.38484024918745Z" style="fill: rgb(250, 240, 192); fill-opacity: 1;"/></g><g id="shape-b2911686-ff8c-11ec-9f14-3bc3f8e9ac9d"><path d="M173.92617096677486,33.83280882990252C173.9593468238013,33.82476765980499,173.99230476783032,33.820747074756255,174.02547783110003,33.816726489707484C174.05450663615375,33.808685319609985,174.0791704762387,33.80466473456123,174.1082009575457,33.800644149512465C174.20336188740112,33.78456180931746,174.29415896978935,33.77652118093175,174.3934714216266,33.77652118093175L179.95433174808295,33.77673282773567C179.99973028927707,33.704154279523316,180.04120080899884,33.63241538461541,180.08245341572274,33.56025937161429C180.11955785297232,33.500161863488636,180.16102502018703,33.43562231852657,180.19005773650042,33.37150530877574C180.23960332966635,33.27966890574214,180.27278086294655,33.179576814734574,180.30988194768815,33.079278873239446C180.33520008551704,33.01918136511378,180.36401097757334,32.95908385698808,180.38474344367842,32.894972264355374C180.41791930070394,32.78282166847238,180.4425853757939,32.67003726977249,180.4628792221465,32.55386175514627C180.47532037806332,32.50180650054173,180.49190802720068,32.445730660888415,180.4999836593961,32.39388884073673C180.52530235597624,32.22142946912244,180.54167153336493,32.04918136511377,180.54167153336493,31.87270249187432C180.54167153336493,31.523975514626244,180.49212594019855,31.191337378114866,180.38866867139313,30.878552979414962C180.2315198749534,30.33747497291442,179.9296656729939,29.836407800650072,179.51629030381082,29.42757789815819C179.4169834394852,29.327274539544973,179.3095970317063,29.235649404117005,179.20199271092952,29.151429469122434C179.1648882736804,29.123285915492964,179.127567040935,29.09492892741062,179.0904603686804,29.067209534127855C179.01603469868633,29.010708992416056,178.9374575067095,28.958655904658734,178.85888590224567,28.910411050920928C178.813487361052,28.882690574214514,178.76787090686003,28.854333044420372,178.72247236566636,28.830210617551472C178.64390076120253,28.786619609967502,178.5611776347555,28.745990682556865,178.47845450830937,28.70599609967497C178.43305596711616,28.685893716143028,178.39158544739394,28.661982015167922,178.34618690619982,28.645898591549326C178.22636269501163,28.593843336944758,178.10216904884282,28.55406218851573,177.97819890318533,28.514067605633826C177.9286533100194,28.502005850487556,177.88303797332992,28.49354160346698,177.8334934976665,28.4819034669556C177.7424785022813,28.45735742145179,177.6514635068952,28.437889382448546,177.56066642450787,28.42180595882992C177.51112083134103,28.4137647887324,177.4613595601818,28.405723618634894,177.40766356253607,28.40170357529793C177.30420517622906,28.38562177681473,177.20097029043245,28.37715752979416,177.09336596965522,28.373560021668467C177.06019011262833,28.369539490790928,177.02308623413046,28.369539490790928,176.98990758334776,28.369539490790928C176.87008337215957,28.365519014084526,176.74588972599122,28.373560021668467,176.62606551480349,28.381601245937162C176.5889610775539,28.38562177681473,176.55578577927827,28.38562177681473,176.52260712849602,28.38964241603466C176.3613123975856,28.405724756229695,176.20416360114496,28.43365650054171,176.04308678323196,28.46984284940413C174.4347212345947,28.86237264355364,173.3060995317319,30.26171717226437,173.3060995317319,31.873093120260023C173.3060995317319,32.578185211267595,173.52109026028756,33.25554165763816,173.92617096677486,33.83280882990252ZZ" style="fill: rgb(250, 240, 192); fill-opacity: 1;"/></g></g></g><g id="shape-b291168d-ff8c-11ec-9f14-3bc3f8e9ac9d"><ellipse cx="179.5" cy="52.53304580173348" rx="3.5" ry="3.5" transform="matrix(1,0,0,1,0,0)" style="fill: rgb(250, 240, 192); fill-opacity: 1;"/></g></g></g></svg>